<svg width="62" height="62" viewBox="0 0 62 62" fill="none" xmlns="http://www.w3.org/2000/svg">
<path d="M45.1831 24.7999L14.4673 43.3224C12.659 44.4074 10.334 43.1158 10.334 40.9974V20.3308C10.334 11.3149 20.0732 5.68328 27.9007 10.1783L39.7582 16.9983L45.1573 20.0983C46.9398 21.1574 46.9656 23.7408 45.1831 24.7999Z" fill="white"/>
<path d="M46.7334 39.9384L36.2709 45.9834L25.8342 52.0025C22.0884 54.1467 17.8517 53.7075 14.7776 51.5375C13.2792 50.5042 13.4601 48.205 15.0359 47.275L47.8701 27.59C49.4201 26.66 51.4609 27.5384 51.7451 29.3209C52.3909 33.325 50.7376 37.6392 46.7334 39.9384Z" fill="white"/>
</svg>